<?xml version="1.0" standalone="no"?><!DOCTYPE svg PUBLIC "-//W3C//DTD SVG 1.1//EN" "http://www.w3.org/Graphics/SVG/1.1/DTD/svg11.dtd"><svg t="1538724002250" class="icon" style="" viewBox="0 0 1024 1024" version="1.1" xmlns="http://www.w3.org/2000/svg" p-id="2520" xmlns:xlink="http://www.w3.org/1999/xlink" width="32" height="32"><defs><style type="text/css"></style></defs><path d="M861.012317 164.091494C765.809507 68.885661 639.229448 16.455901 504.590713 16.455901S243.372927 68.885661 148.170117 164.091494C52.965291 259.293296 0.534525 385.874363 0.534525 520.51209c0 134.639743 52.430767 261.217786 147.635592 356.422612 95.20281 95.20281 221.782869 147.633577 356.420596 147.633577s261.217786-52.430767 356.420596-147.633577c95.204825-95.204825 147.635592-221.783877 147.635592-356.422612C1008.646902 385.874363 956.217143 259.293296 861.012317 164.091494zM791.219829 810.54584c-4.394084 4.393077-10.152441 6.590623-15.910797 6.590623-5.759364 0-11.518728-2.197546-15.911805-6.590623L504.590713 555.740334 249.785207 810.54584c-4.394084 4.393077-10.152441 6.590623-15.911805 6.590623-5.758356 0-11.516713-2.197546-15.910797-6.590623-8.788169-8.788169-8.788169-23.036448 0-31.824617L472.767104 523.916725 219.336953 270.485566c-8.788169-8.788169-8.788169-23.036448 0-31.824617 8.788169-8.785146 23.035441-8.785146 31.823609 0l253.431158 253.431158 253.431158-253.431158c8.788169-8.785146 23.035441-8.785146 31.823609 0 8.788169 8.788169 8.788169 23.036448 0 31.824617L536.41533 523.916725l254.804499 254.805506C800.007998 787.509392 800.007998 801.757672 791.219829 810.54584z" p-id="2521" fill="#d81e06"></path></svg>