<?xml version="1.0" standalone="no"?><!DOCTYPE svg PUBLIC "-//W3C//DTD SVG 1.1//EN" "http://www.w3.org/Graphics/SVG/1.1/DTD/svg11.dtd"><svg t="1534143356467" class="icon" style="" viewBox="0 0 1024 1024" version="1.1" xmlns="http://www.w3.org/2000/svg" p-id="11980" xmlns:xlink="http://www.w3.org/1999/xlink" width="200" height="200"><defs><style type="text/css"></style></defs><path d="M512 208.5888a303.4112 303.4112 0 1 0 0 606.8224 303.4112 303.4112 0 0 0 0-606.8224z m0 526.9504a223.5392 223.5392 0 1 1 0-447.0784 223.5392 223.5392 0 0 1 0 447.0784z m-248.4736 24.9344a39.936 39.936 0 0 1 0 56.5248l-56.5248 56.5248a39.936 39.936 0 0 1-56.5248-56.5248l56.5248-56.5248a39.936 39.936 0 0 1 56.5248 0z m496.9472-496.9472a39.936 39.936 0 0 1 0-56.5248l56.5248-56.5248a39.936 39.936 0 0 1 56.5248 56.5248l-56.5248 56.5248a39.936 39.936 0 0 1-56.5248 0zM120.7808 551.936H40.9088a39.936 39.936 0 0 1 0-79.872h79.872a39.936 39.936 0 0 1 0 79.872zM1022.976 512c0 22.016-17.92 39.936-39.936 39.936h-79.872a39.936 39.936 0 1 1 0-79.872h79.872c22.016 0 39.936 17.92 39.936 39.936zM150.528 207.1552a39.936 39.936 0 0 1 56.576-56.5248L263.68 207.1552A39.936 39.936 0 0 1 207.1552 263.68L150.6304 207.1552z m722.7904 609.6896a39.936 39.936 0 1 1-56.5248 56.5248l-56.5248-56.5248a39.936 39.936 0 0 1 56.5248-56.5248l56.5248 56.5248zM472.064 120.7808V40.9088a39.936 39.936 0 0 1 79.872 0v79.872a39.936 39.936 0 1 1-79.872 0z m79.872 782.4384v79.872a39.936 39.936 0 1 1-79.872 0v-79.872a39.936 39.936 0 0 1 79.872 0z" p-id="11981"></path></svg>