<?xml version="1.0" standalone="no"?><!DOCTYPE svg PUBLIC "-//W3C//DTD SVG 1.1//EN" "http://www.w3.org/Graphics/SVG/1.1/DTD/svg11.dtd"><svg t="1534142856135" class="icon" style="" viewBox="0 0 1025 1024" version="1.1" xmlns="http://www.w3.org/2000/svg" p-id="5395" xmlns:xlink="http://www.w3.org/1999/xlink" width="200.1953125" height="200"><defs><style type="text/css"></style></defs><path d="M509.477862 64.0005C595.568088 64.0005 654.036207 93.44073 683.210564 151.505184 707.592841 200.065563 707.592841 258.754021 707.592841 310.506426 707.592841 377.62695 673.881139 457.787576 615.030926 530.380144L577.71322 576.476501 620.690671 617.316824C640.161468 635.756965 682.398618 658.573147 758.657917 696.885447 830.069424 732.757726 878.642938 758.037925 901.847097 781.382104 942.74692 822.478427 954.655471 899.383029 955.212686 938.351332 955.308214 944.039373 953.095259 949.59942 949.146971 953.631448 945.103155 957.767481 939.722018 960.015502 934.006551 960.015502L84.901411 960.015502C79.265546 960.015502 73.733165 957.703481 69.784875 953.631448 65.836586 949.59942 63.615673 944.039373 63.671394 938.383332 63.85448 927.639245 66.799777 831.910497 117.036985 781.382104 140.241147 758.069925 188.822621 732.829724 260.226164 696.885447 336.453625 658.637147 378.722612 635.780966 398.193411 617.252824L441.170861 576.436503 403.853157 530.372144C345.074588 457.811577 311.323081 377.65095 311.323081 310.498426 311.323081 258.746022 311.323081 200.057563 335.70536 151.497184 364.919519 93.44073 423.331916 64.0005 509.477862 64.0005L509.477862 64.0005ZM509.477862 0C369.807119 0 306.984738 66.688521 278.892976 122.664958 247.664872 184.817444 247.664872 254.505989 247.664872 310.506426 247.664872 393.067071 286.853238 487.315807 354.467696 570.78846 338.292445 586.140581 271.736702 619.580843 231.744349 639.628999 152.436267 679.501306 102.111496 705.877515 72.021709 736.133751 5.386362 803.094272 0.347517 915.503155 0.021146 937.375323-0.352986 960.199504 8.435142 982.247674 24.403426 998.567799 40.35579 1014.807927 62.158945 1024 84.901411 1024L934.014515 1024C956.772898 1024 978.552172 1014.815926 994.504539 998.567799 1010.464859 982.247674 1019.260951 960.191499 1018.918656 937.343323 1018.576367 915.503155 1013.505678 803.094272 946.886252 736.133751 916.844231 705.877515 866.487615 679.501306 787.155655 639.628999 747.163301 619.572838 680.599598 586.132577 664.456186 570.78846 732.038804 487.315807 771.259011 393.067071 771.259011 310.506426 771.259011 254.505989 771.259011 184.817444 740.062748 122.664958 711.955063 66.688521 649.124727 0 509.477862 0L509.477862 0 509.477862 0Z" p-id="5396"></path></svg>