<?xml version="1.0" standalone="no"?><!DOCTYPE svg PUBLIC "-//W3C//DTD SVG 1.1//EN" "http://www.w3.org/Graphics/SVG/1.1/DTD/svg11.dtd"><svg t="1534593052972" class="icon" style="" viewBox="0 0 1024 1024" version="1.1" xmlns="http://www.w3.org/2000/svg" p-id="4274" xmlns:xlink="http://www.w3.org/1999/xlink" width="200" height="200"><defs><style type="text/css"></style></defs><path d="M921.6 391.791304c-15.582609 0-28.93913 13.356522-28.93913 28.93913l0 451.895652-756.869565 0L135.791304 420.730435c0-15.582609-13.356522-28.93913-28.93913-28.93913s-28.93913 13.356522-28.93913 28.93913l0 480.834783c0 15.582609 13.356522 28.93913 28.93913 28.93913l816.973913 0c15.582609 0 28.93913-13.356522 28.93913-28.93913L952.765217 420.730435C950.53913 405.147826 937.182609 391.791304 921.6 391.791304z" p-id="4275"></path><path d="M338.365217 318.330435c6.678261 0 15.582609-2.226087 20.034783-8.904348l126.886957-122.434783 0 311.652174c0 15.582609 13.356522 28.93913 28.93913 28.93913 15.582609 0 28.93913-13.356522 28.93913-28.93913l0-311.652174 126.886957 122.434783c6.678261 4.452174 13.356522 8.904348 20.034783 8.904348 6.678261 0 15.582609-2.226087 20.034783-8.904348 11.130435-11.130435 11.130435-28.93913 0-40.069565L534.26087 97.947826c-4.452174-4.452174-11.130435-6.678261-17.808696-6.678261 0 0-2.226087 0-2.226087 0 0 0-2.226087 0-2.226087 0-6.678261 0-13.356522 2.226087-17.808696 6.678261l-175.86087 169.182609c-11.130435 11.130435-11.130435 28.93913 0 40.069565C322.782609 316.104348 331.686957 318.330435 338.365217 318.330435z" p-id="4276"></path></svg>