<?xml version="1.0" standalone="no"?><!DOCTYPE svg PUBLIC "-//W3C//DTD SVG 1.1//EN" "http://www.w3.org/Graphics/SVG/1.1/DTD/svg11.dtd"><svg t="1541237963626" class="icon" style="" viewBox="0 0 1024 1024" version="1.1" xmlns="http://www.w3.org/2000/svg" p-id="2046" xmlns:xlink="http://www.w3.org/1999/xlink" width="32" height="32"><defs><style type="text/css"></style></defs><path d="M512.002 0C229.382 0 0.237 229.145 0.237 511.765 0.237 685.839 87.185 839.597 220 932.046c25.884-90.133 91.287-158.031 180.288-189.033a305.891 305.891 0 0 1 11.245-3.682c0.6-0.183 1.19-0.383 1.795-0.562a325.359 325.359 0 0 1 27.058-6.868c0.933-0.196 1.874-0.37 2.807-0.558a344.82 344.82 0 0 1 14.722-2.62 350.905 350.905 0 0 1 10.429-1.453c1.254-0.158 2.499-0.33 3.757-0.47a354.783 354.783 0 0 1 14.168-1.359h51.705c4.757 0.354 9.454 0.82 14.123 1.35 1.32 0.154 2.628 0.333 3.94 0.5a344.791 344.791 0 0 1 14.393 2.099c3.415 0.574 6.806 1.2 10.167 1.87 1.149 0.229 2.315 0.441 3.456 0.683a327.798 327.798 0 0 1 26.446 6.709c1.067 0.317 2.116 0.662 3.178 0.991 3.224 1 6.426 2.045 9.592 3.14 89.284 30.882 154.903 98.838 180.9 189.147 132.722-92.466 219.603-246.166 219.603-420.174C1023.763 229.14 794.622 0 512.002 0z m0 725.32c-130.373 0-236.491-103.56-240.743-232.896-0.146-0.092-0.292-0.167-0.438-0.259-4.993-93.353 43.813-165.065 105.598-206.971 0.358-0.246 0.703-0.5 1.062-0.741 2.357-1.583 4.747-3.082 7.138-4.578 0.937-0.587 1.853-1.199 2.799-1.77 38.04-23.106 79.896-35.18 116.717-34.48 2.62-0.087 5.23-0.2 7.871-0.2 2.507 0 4.977 0.113 7.468 0.188 28.237-0.487 59.406 6.534 89.563 20.212a241.023 241.023 0 0 1 61.725 39.377c50.227 43.089 86.59 107.847 82.188 188.963l-0.2 0.117c-4.186 129.399-110.329 233.039-240.748 233.039z" fill="#A0D9F6" p-id="2047"></path><path d="M376.414 285.194c0.354-0.242 0.704-0.504 1.062-0.741-0.358 0.241-0.703 0.5-1.062 0.74z m143.051-41.581c-2.49-0.075-4.96-0.187-7.467-0.187-2.64 0-5.252 0.112-7.871 0.2 2.523 0.05 5.043 0.104 7.517 0.27a156.266 156.266 0 0 1 7.821-0.283zM472.28 386.726c-46.308 81.238-124.764 153.205-201.025 105.698 4.253 129.336 110.37 232.897 240.744 232.897 130.42 0 236.566-103.64 240.748-233.039-63.725 39.66-230.815-17.875-280.467-105.556z m-87.664-106.85c0.937-0.584 1.857-1.2 2.799-1.77-0.95 0.574-1.862 1.186-2.8 1.77z m224.413-16.051a260.297 260.297 0 0 1 61.726 39.377 241.14 241.14 0 0 0-61.726-39.377z" fill="#FCE9EA" p-id="2048"></path><path d="M453.975 729.36z m156.523 9.296c1.067 0.317 2.116 0.662 3.178 0.991-1.062-0.329-2.111-0.674-3.178-0.99z m-170.117-6.755c0.933-0.196 1.874-0.37 2.807-0.558-0.937 0.187-1.878 0.362-2.807 0.558z m-28.854 7.43c0.6-0.183 1.192-0.383 1.795-0.562-0.603 0.179-1.195 0.379-1.795 0.562z m154.638-10.629z m57.098 14.086c0.733 0.254 1.458 0.512 2.183 0.77a119.433 119.433 0 0 1-10.458 22.11c17.142 26.397 12.84 141.49-12.919 123.398l-45.096-31.756-44.98-31.64 2.958-2.078c-0.983 0.025-1.966 0.075-2.957 0.075-1.033 0-2.053-0.054-3.078-0.079l2.961 2.082-44.98 31.64-45.095 31.756c-25.9 18.125-30.19-97.405-12.878-123.535a119.287 119.287 0 0 1-10.357-21.915c0.57-0.204 1.137-0.408 1.711-0.603-89 30.998-154.404 98.9-180.287 189.033 82.82 57.653 183.457 91.483 292.003 91.483 108.616 0 209.316-33.876 292.161-91.59-25.984-90.31-91.603-158.27-180.892-189.151z m-42.667-11.524c1.149 0.229 2.315 0.441 3.456 0.683-1.14-0.242-2.303-0.458-3.456-0.683z m-112.257-3.99c1.253-0.154 2.499-0.33 3.756-0.47-1.257 0.14-2.503 0.312-3.756 0.47z m83.753-0.483c1.32 0.15 2.628 0.333 3.94 0.5-1.312-0.163-2.616-0.342-3.94-0.5z" fill="#CFE07D" p-id="2049"></path><path d="M408.929 765.527c3.44-5.19 7.73-6.872 12.877-3.252l45.096 31.756 42.018 29.557c1.029 0.025 2.045 0.08 3.078 0.08 0.991 0 1.974-0.05 2.957-0.076l42.022-29.561 45.096-31.756c5.173-3.653 9.475-1.912 12.92 3.39a119.308 119.308 0 0 0 10.457-22.111l-2.182-0.77a307.359 307.359 0 0 0-9.592-3.14c-1.062-0.33-2.111-0.675-3.178-0.992a327.354 327.354 0 0 0-26.446-6.71c-1.14-0.24-2.307-0.453-3.456-0.682a331.806 331.806 0 0 0-24.56-3.97c-1.312-0.166-2.62-0.35-3.94-0.5a367.756 367.756 0 0 0-14.123-1.349h-51.705A354.783 354.783 0 0 0 472.1 726.8c-1.258 0.142-2.503 0.317-3.757 0.47a337.678 337.678 0 0 0-25.15 4.074c-0.938 0.187-1.88 0.362-2.808 0.558a328.678 328.678 0 0 0-27.058 6.868c-0.604 0.179-1.196 0.379-1.795 0.562a298.158 298.158 0 0 0-12.957 4.285 119.362 119.362 0 0 0 10.354 21.911z" fill="#FEFEFE" p-id="2050"></path><path d="M602.073 762.275l-45.096 31.756-42.022 29.561-2.957 2.078 44.98 31.64 45.095 31.756c25.76 18.092 30.061-97.001 12.92-123.397-3.44-5.306-7.743-7.047-12.92-3.394z m-180.267 0c-5.148-3.62-9.437-1.937-12.877 3.252-17.313 26.13-13.024 141.66 12.877 123.535l45.096-31.756 44.98-31.64-2.962-2.082-42.018-29.557-45.096-31.752z" fill="#7EA701" p-id="2051"></path><path d="M472.279 386.726c49.652 87.68 216.742 145.217 280.467 105.556l0.2-0.117c4.402-81.116-31.965-145.874-82.188-188.963a260.514 260.514 0 0 0-61.726-39.377c-30.156-13.678-61.326-20.7-89.563-20.212-2.627 0.046-5.247 0.108-7.82 0.283 8.337 29.52-8.268 88.264-39.37 142.83z" fill="#F7B970" p-id="2052"></path><path d="M472.279 386.726c31.102-54.57 47.711-113.31 39.37-142.83a148.932 148.932 0 0 0-7.518-0.27c-36.82-0.7-78.677 11.373-116.717 34.48-0.942 0.57-1.862 1.186-2.8 1.77-2.39 1.495-4.78 2.994-7.138 4.577-0.358 0.241-0.703 0.5-1.062 0.74-61.784 41.907-110.59 113.62-105.597 206.972 0.146 0.092 0.292 0.167 0.437 0.259 76.261 47.507 154.717-24.46 201.025-105.698z" fill="#FBCE77" p-id="2053"></path></svg>